<svg width="15" height="15" viewBox="0 0 15 15" fill="none" xmlns="http://www.w3.org/2000/svg">
<g id="solar:cart-bold">
<path id="Vector" fill-rule="evenodd" clip-rule="evenodd" d="M5.26179 2.03125C5.43679 1.6625 5.81429 1.40625 6.25054 1.40625H8.75054C9.18679 1.40625 9.56366 1.6625 9.73929 2.03125C10.1662 2.035 10.4993 2.05438 10.7968 2.17063C11.1519 2.30954 11.4608 2.54563 11.688 2.85188C11.9174 3.16063 12.0255 3.55625 12.173 4.10063L12.6368 5.80188L12.8118 6.3275L12.8268 6.34625C13.3899 7.0675 13.1218 8.14 12.5855 10.2844C12.2443 11.6488 12.0743 12.3306 11.5655 12.7281C11.0568 13.125 10.3537 13.125 8.94741 13.125H6.05366C4.64741 13.125 3.94429 13.125 3.43554 12.7281C2.92679 12.3306 2.75616 11.6488 2.41554 10.2844C1.87929 8.14 1.61116 7.0675 2.17429 6.34625L2.18929 6.3275L2.36429 5.80188L2.82804 4.10063C2.97616 3.55625 3.08429 3.16 3.31304 2.85125C3.54037 2.54524 3.84922 2.30937 4.20429 2.17063C4.50179 2.05438 4.83429 2.03438 5.26179 2.03125ZM5.26304 2.97C4.84929 2.97437 4.68304 2.99 4.54554 3.04375C4.35427 3.11855 4.18792 3.24569 4.06554 3.41062C3.95554 3.55875 3.89054 3.76562 3.70929 4.4325L3.35304 5.73812C3.99054 5.625 4.86179 5.625 6.05304 5.625H8.94741C10.1393 5.625 11.0099 5.625 11.6474 5.7375L11.2918 4.43187C11.1105 3.765 11.0455 3.55813 10.9355 3.41C10.8132 3.24507 10.6468 3.11793 10.4555 3.04312C10.318 2.98937 10.1518 2.97375 9.73804 2.96937C9.6493 3.15615 9.50942 3.31395 9.33464 3.42446C9.15986 3.53497 8.95733 3.59367 8.75054 3.59375H6.25054C6.04382 3.59373 5.84133 3.53512 5.66656 3.42473C5.49178 3.31433 5.35187 3.15666 5.26304 2.97Z" fill="#1B4C95"/>
</g>
</svg>
